<?xml version="1.0" encoding="UTF-8" standalone="no"?>
<svg
   xmlns:dc="http://purl.org/dc/elements/1.1/"
   xmlns:cc="http://creativecommons.org/ns#"
   xmlns:rdf="http://www.w3.org/1999/02/22-rdf-syntax-ns#"
   xmlns:svg="http://www.w3.org/2000/svg"
   xmlns="http://www.w3.org/2000/svg"
   xmlns:sodipodi="http://sodipodi.sourceforge.net/DTD/sodipodi-0.dtd"
   xmlns:inkscape="http://www.inkscape.org/namespaces/inkscape"
   version="1.1"
   id="Capa_1"
   x="0px"
   y="0px"
   viewBox="0 0 512 512"
   style="enable-background:new 0 0 512 512;"
   xml:space="preserve"
   sodipodi:docname="turn-down.svg"
   inkscape:version="1.0 (4035a4fb49, 2020-05-01)"><metadata
   id="metadata45"><rdf:RDF><cc:Work
       rdf:about=""><dc:format>image/svg+xml</dc:format><dc:type
         rdf:resource="http://purl.org/dc/dcmitype/StillImage" /><dc:title></dc:title></cc:Work></rdf:RDF></metadata><defs
   id="defs43" /><sodipodi:namedview
   inkscape:document-rotation="0"
   pagecolor="#ffffff"
   bordercolor="#666666"
   borderopacity="1"
   objecttolerance="10"
   gridtolerance="10"
   guidetolerance="10"
   inkscape:pageopacity="0"
   inkscape:pageshadow="2"
   inkscape:window-width="1366"
   inkscape:window-height="715"
   id="namedview41"
   showgrid="false"
   inkscape:zoom="1.5136505"
   inkscape:cx="351.85024"
   inkscape:cy="329.48119"
   inkscape:window-x="-8"
   inkscape:window-y="22"
   inkscape:window-maximized="1"
   inkscape:current-layer="Capa_1" />


<g
   id="g10">
</g>
<g
   id="g12">
</g>
<g
   id="g14">
</g>
<g
   id="g16">
</g>
<g
   id="g18">
</g>
<g
   id="g20">
</g>
<g
   id="g22">
</g>
<g
   id="g24">
</g>
<g
   id="g26">
</g>
<g
   id="g28">
</g>
<g
   id="g30">
</g>
<g
   id="g32">
</g>
<g
   id="g34">
</g>
<g
   id="g36">
</g>
<g
   id="g38">
</g>
<path
   id="path4-8"
   d="M 240.08162,492.61431 C 94.506037,512.68216 74.379067,474.95734 28.934094,359.36033 c 41.251256,0.10678 54.307785,0.69565 89.592566,-6.28091 35.84172,-7.92369 57.85071,-31.25282 67.86801,-59.65887 16.49845,-46.78466 -14.44563,-112.70809 -25.41624,-146.63918 -16.2664,-50.310501 169.18337,1.90502 169.18337,1.90502 -12.87406,41.34242 -31.03337,85.32745 -22.76648,135.91904 15.58006,51.27192 62.72906,72.21878 102.66483,72.33813 l 50.71194,1.997 C 439.70794,479.83759 433.56332,513.46244 240.08162,492.61431 Z"
   style="fill:#ff0435;stroke-width:1.4102"
   sodipodi:nodetypes="cccasccccc" /><path
   id="path4-8-4-2"
   d="m 215.17383,13.249758 c -34.71477,0 -71.51227,22.905848 -71.51227,22.905848 C 76.185436,90.697323 82.987667,141.51828 82.987667,141.51828 c -0.98914,49.5061 32.591063,51.36258 58.696813,50.41613 l 215.54162,-1.72844 c 45.43792,-0.48727 71.38821,0.89408 71.04511,-46.30852 C 427.5599,91.726631 379.82678,41.374008 326.74872,21.18253 c 0,0 -34.64176,-9.042836 -49.39986,-8.768448 -21.07081,0.391756 -46.51091,0.393513 -62.17514,0.835676 z"
   style="fill:#ff738e;fill-opacity:1;stroke-width:1.87015"
   sodipodi:nodetypes="sscccccsss" /><path
   sodipodi:nodetypes="cccccc"
   style="fill:#ff738e;fill-opacity:1;stroke-width:1.16069"
   d="m 252.69663,362.40549 c 113.97323,46.30942 102.11536,87.38799 174.84587,106.60743 -24.95934,25.89097 -15.66031,25.37816 -100.83793,30.6087 C 259.7376,499.49811 206.00931,497.76724 154.33561,498.48345 109.73778,491.34296 90.753877,473.49524 83.371768,464.21282 166.38123,444.5596 124.41914,404.83585 252.69663,362.40549 Z"
   id="path4-8-2" /></svg>
