<svg id="bold" enable-background="new 0 0 32 32" height="512" viewBox="0 0 32 32" width="512" xmlns="http://www.w3.org/2000/svg"><path d="m26 32h-20c-3.314 0-6-2.686-6-6v-20c0-3.314 2.686-6 6-6h20c3.314 0 6 2.686 6 6v20c0 3.314-2.686 6-6 6z" fill="#fff9dd"/><path d="m12.546 22.992c-.133 0-.26-.053-.354-.146l-3.038-3.037c-.195-.195-.195-.512 0-.707.999-1.001 2.743-1.001 3.745 0 1.032 1.032 1.032 2.712 0 3.744-.093.093-.22.146-.353.146z" fill="#ffd200"/><path d="m10.146 21.854c-.195-.195-.195-.512 0-.707l.5-.5c.195-.195.512-.195.707 0s.195.512 0 .707l-.5.5c-.195.195-.511.195-.707 0z" fill="#ffd200"/><path d="m13.167 20.333c-.128 0-.256-.049-.354-.146-.195-.195-.195-.512 0-.707l.833-.833c.195-.195.512-.195.707 0s.195.512 0 .707l-.833.833c-.097.098-.225.146-.353.146z" fill="#ffd200"/><path d="m12.167 19.333c-.128 0-.256-.049-.354-.146-.195-.195-.195-.512 0-.707l.833-.833c.195-.195.512-.195.707 0s.195.512 0 .707l-.833.833c-.097.098-.225.146-.353.146z" fill="#ffd200"/><g fill="#ffe777"><path d="m13.48 15.52-1-1c-.195-.195-.195-.512 0-.707s.512-.195.707 0l1 1c.195.195.195.512 0 .707s-.512.195-.707 0z"/><path d="m14.813 14.187-1-1c-.195-.195-.195-.512 0-.707s.512-.195.707 0l1 1c.195.195.195.512 0 .707s-.512.195-.707 0z"/><path d="m17.48 19.52-1-1c-.195-.195-.195-.512 0-.707s.512-.195.707 0l1 1c.195.195.195.512 0 .707-.195.196-.512.196-.707 0z"/><path d="m18.813 18.187-1-1c-.195-.195-.195-.512 0-.707s.512-.195.707 0l1 1c.195.195.195.512 0 .707s-.512.195-.707 0z"/><path d="m9.004 11.131h5.162v.886h-5.162z" transform="matrix(.707 -.708 .708 .707 -4.791 11.59)"/><path d="m8.741 12.379 3.648-3.652-.397-.397c-.44-.441-1.212-.441-1.65 0l-2 2c-.221.221-.342.514-.342.825 0 .312.121.604.342.825z"/><path d="m14.429 10.768-3.648 3.652.393.393c.22.221.514.342.826.342s.605-.121.825-.342l2-2c.221-.22.342-.513.342-.825s-.121-.604-.342-.825z"/><path d="m23.259 19.621-3.648 3.652.397.397c.44.441 1.212.441 1.65 0l2-2c.221-.221.342-.514.342-.825s-.121-.604-.342-.825z"/><path d="m17.834 19.983h5.162v.886h-5.162z" transform="matrix(.707 -.708 .708 .707 -8.464 20.434)"/><path d="m17.571 21.232 3.648-3.652-.393-.393c-.22-.221-.514-.342-.826-.342s-.605.121-.825.342l-2 2c-.221.22-.342.513-.342.825s.121.604.342.825z"/></g><path d="m19.996 15.289c.346-.419.544-.934.544-1.485 0-.626-.243-1.215-.687-1.658-.86-.861-2.222-.901-3.142-.142z" fill="#ffd200"/><path d="m15.988 12.695-3.647 3.647c-.22.22-.341.513-.341.825s.121.604.342.825l1.666 1.666c.22.221.513.342.825.342s.605-.121.825-.342l3.647-3.647zm-.675 4.659-.667-.667c-.195-.195-.195-.512 0-.707s.512-.195.707 0l.667.667c.195.195.195.512 0 .707s-.512.195-.707 0z" fill="#ffd200"/></svg>