<svg id="bold" enable-background="new 0 0 32 32" height="512" viewBox="0 0 32 32" width="512" xmlns="http://www.w3.org/2000/svg"><path d="m26 32h-20c-3.314 0-6-2.686-6-6v-20c0-3.314 2.686-6 6-6h20c3.314 0 6 2.686 6 6v20c0 3.314-2.686 6-6 6z" fill="#e3f8fa"/><path d="m26 32h-20c-3.314 0-6-2.686-6-6v-20c0-3.314 2.686-6 6-6h20c3.314 0 6 2.686 6 6v20c0 3.314-2.686 6-6 6z" fill="#e3f8fa"/><g fill="#8ce1eb"><path d="m16.833 13.5c-.276 0-1.391 0-1.667 0s-.5-.224-.5-.5v-3.667c.001-.735.599-1.333 1.334-1.333s1.333.598 1.333 1.333v3.667c0 .276-.224.5-.5.5z"/><path d="m15.167 12h-3.333c-.643 0-1.167-.523-1.167-1.167v-.333c0-.643.523-1.167 1.167-1.167h3.333c.276 0 .5.224.5.5v1.667c0 .276-.224.5-.5.5z"/><path d="m20.167 12h-3.333c-.276 0-.5-.224-.5-.5v-1.667c0-.276.224-.5.5-.5h3.333c.643 0 1.167.523 1.167 1.167v.333c-.001.644-.524 1.167-1.167 1.167z"/><path d="m17.5 14.667h-3c-.276 0-.5-.224-.5-.5 0-1.011.897-1.833 2-1.833s2 .822 2 1.833c0 .276-.224.5-.5.5z"/><path d="m16 16c-.276 0-.5-.224-.5-.5v-1.167c0-.276.224-.5.5-.5s.5.224.5.5v1.167c0 .276-.224.5-.5.5z"/></g><path d="m23.981 23.175c-.826-3.385-4.182-5.842-7.981-5.842s-7.155 2.457-7.981 5.842c-.049.199-.003.409.123.57.127.161.32.255.525.255h14.667c.205 0 .398-.094.524-.255s.172-.371.123-.57zm-8.648-4.259v1.227c-.317-.013-.627-.038-.932-.07.29-.54.612-.928.932-1.157zm-2.308.943c-.259-.055-.512-.115-.755-.184.362-.212.744-.398 1.147-.547-.139.226-.271.468-.392.731zm2.308 1.617v1.191h-1.776c.086-.478.192-.918.315-1.313.475.061.963.102 1.461.122zm1.334 0c.498-.019.986-.06 1.461-.122.123.395.229.835.315 1.313h-1.776zm0-1.333v-1.227c.321.229.642.617.932 1.156-.306.032-.616.057-.932.071zm1.916-1.015c.402.149.785.334 1.147.547-.243.069-.495.13-.755.184-.121-.263-.253-.505-.392-.731zm-7.601 1.519c.486.188 1.014.347 1.575.474-.143.481-.263.996-.354 1.546h-2.618c.317-.759.797-1.441 1.397-2.02zm8.815 2.02c-.09-.55-.21-1.065-.354-1.546.561-.127 1.089-.286 1.575-.474.6.579 1.08 1.261 1.396 2.02z" fill="#26c6da"/></svg>