<svg id="bold" enable-background="new 0 0 32 32" height="512" viewBox="0 0 32 32" width="512" xmlns="http://www.w3.org/2000/svg"><path d="m26 32h-20c-3.314 0-6-2.686-6-6v-20c0-3.314 2.686-6 6-6h20c3.314 0 6 2.686 6 6v20c0 3.314-2.686 6-6 6z" fill="#fff9dd"/><path d="m17.445 17.221c-.683 0-1.366-.26-1.886-.78-1.04-1.04-1.04-2.731 0-3.771 1.04-1.039 2.731-1.04 3.771 0s1.04 2.731 0 3.771c-.519.519-1.202.78-1.885.78z" fill="#ffd200"/><path d="m10.879 23.999c-.406 0-.811-.154-1.119-.463-.241-.241-.388-.542-.441-.855-.313-.052-.614-.2-.855-.44-.618-.618-.618-1.622 0-2.239l3.35-3.35-1.276-.171c-.591-.117-.99-.603-.99-1.163 0-.583.435-1.085 1.012-1.167l2.863-.307c.589-.064 1.164.141 1.582.559l2.591 2.591c.418.417.621.994.559 1.581l-.304 2.841c-.085.6-.586 1.035-1.17 1.035-.56 0-1.046-.398-1.156-.947l-.177-1.318-3.351 3.35c-.307.309-.713.463-1.118.463zm-.177-1.759c-.097.097-.097.256 0 .354.097.097.256.096.353 0l3.847-3.847c.267-.267.655-.357 1.012-.237.358.121.612.429.662.803l.089.662.165-1.541c.02-.185-.044-.366-.175-.497l-2.592-2.592c-.131-.132-.313-.195-.497-.176l-1.542.165.663.088c.375.05.683.304.803.662.121.358.03.746-.237 1.013l-3.846 3.846c-.097.097-.097.256 0 .353s.255.097.353 0l2.256-2.256c.26-.26.682-.26.943 0 .13.13.195.301.195.471 0 .171-.065.341-.195.471z" fill="#ffd200"/><path d="m10.334 12c-.276 0-.5-.224-.5-.5 0-.368-.299-.667-.667-.667-.276 0-.5-.224-.5-.5s.224-.5.5-.5c.368 0 .667-.299.667-.667 0-.276.224-.5.5-.5s.5.224.5.5c0 .368.299.667.667.667.276 0 .5.224.5.5s-.224.5-.5.5c-.368 0-.667.299-.667.667 0 .276-.224.5-.5.5z" fill="#ffe777"/><path d="m21.667 20.667c-.276 0-.5-.224-.5-.5 0-.368-.299-.667-.667-.667-.276 0-.5-.224-.5-.5s.224-.5.5-.5c.368 0 .667-.299.667-.667 0-.276.224-.5.5-.5s.5.224.5.5c0 .368.299.667.667.667.276 0 .5.224.5.5s-.224.5-.5.5c-.368 0-.667.299-.667.667 0 .276-.224.5-.5.5z" fill="#ffe777"/><path d="m18.956 13.669c-.274 0-.523-.163-.613-.441l-.015-.046c-.266-.823-.058-1.719.542-2.341.601-.621 1.489-.861 2.321-.623.263.075.539.041.776-.096s.404-.359.471-.625l.248-.993c.09-.357.454-.574.809-.485.357.09.574.451.485.809l-.248.993c-.155.619-.545 1.136-1.098 1.456-.553.319-1.196.399-1.809.223-.361-.104-.735-.004-.996.267s-.349.646-.233 1.004c.113.35-.072.749-.422.863-.072.024-.146.035-.218.035z" fill="#ffd200"/></svg>