<svg id="bold" enable-background="new 0 0 32 32" height="512" viewBox="0 0 32 32" width="512" xmlns="http://www.w3.org/2000/svg"><path d="m26 32h-20c-3.314 0-6-2.686-6-6v-20c0-3.314 2.686-6 6-6h20c3.314 0 6 2.686 6 6v20c0 3.314-2.686 6-6 6z" fill="#fff9dd"/><path d="m14.667 23.5v-.685c0-2.03 1.128-3.854 2.943-4.762.154-.077.338-.069.486.022.147.091.237.252.237.425v3.667c0 .189-.107.363-.277.447l-2.667 1.333c-.327.164-.722-.071-.722-.447z" fill="#ffd200"/><path d="m23.277 23.947-2.667-1.333c-.17-.085-.277-.258-.277-.447v-3.667c0-.173.09-.334.237-.425.148-.09.333-.098.486-.022 1.816.908 2.944 2.732 2.944 4.762v.685c0 .373-.394.612-.723.447z" fill="#ffd200"/><g fill="#ffe777"><path d="m12.002 23.611-3.307-3.307c-.26-.26.682-1.203.943-.943l3.307 3.307c.26.261-.813 1.074-.943.943z"/><path d="m12.159 19.765-2.833-3.333c-.239-.28.778-1.144 1.016-.863l2.833 3.333c.238.28-.885 1.018-1.016.863z"/><path d="m12.12 15.716-2.333-3.333c-.211-.301.882-1.067 1.092-.764l2.333 3.333c.212.301-.962.949-1.092.764z"/><path d="m12.5 20.667h-3.167c-.368 0-.667-.299-.667-.667s.298-.667.667-.667h3.167c.368 0 .667.299.667.667s-.299.667-.667.667z"/><path d="m17.667 16.667h-7.834c-.368 0-.667-.299-.667-.667s.298-.667.667-.667h7.833c.368 0 .667.299.667.667s-.298.667-.666.667z"/><path d="m17.5 12.667h-7c-.368 0-.667-.299-.667-.667s.298-.667.667-.667h7c.368 0 .667.299.667.667s-.299.667-.667.667z"/><path d="m12 24h-3c-.551 0-1-.449-1-1 0-.03.005-.104.009-.133l1.917-13.718c.091-.654.659-1.149 1.321-1.149h.753c.735 0 1.333.598 1.333 1.333v13.333c0 .736-.598 1.334-1.333 1.334zm-2.617-1.333h2.617v-13.334h-.753z"/></g><path d="m21.277 11.065-1.1-2.495c-.156-.352-.479-.57-.844-.57s-.688.218-.844.57l-1.1 2.494c-.037.085-.057.176-.057.269v10.667c0 .368.298.667.667.667h2.667c.368 0 .667-.299.667-.667v-10.667c0-.092-.019-.184-.056-.268zm-1.944-1.103.667 1.512v1.193h-1.333v-1.193zm-.666 11.371v-2h1.333v2z" fill="#ffd200"/></svg>