<svg id="bold" enable-background="new 0 0 32 32" height="512" viewBox="0 0 32 32" width="512" xmlns="http://www.w3.org/2000/svg"><path d="m26 32h-20c-3.314 0-6-2.686-6-6v-20c0-3.314 2.686-6 6-6h20c3.314 0 6 2.686 6 6v20c0 3.314-2.686 6-6 6z" fill="#e3f8fa"/><path d="m26 32h-20c-3.314 0-6-2.686-6-6v-20c0-3.314 2.686-6 6-6h20c3.314 0 6 2.686 6 6v20c0 3.314-2.686 6-6 6z" fill="#e3f8fa"/><g fill="#8ce1eb"><path d="m8.083 10.276c-.178-.322-.062-.728.261-.906.206-.114.417-.222.631-.323.333-.157.73-.014.887.318.157.333.015.73-.318.887-.188.089-.373.184-.555.285-.319.177-.726.063-.906-.261z"/><path d="m16.043 9.631c-.429-.109-.869-.189-1.309-.239-.366-.041-.63-.37-.589-.736s.373-.629.736-.589c.501.056 1.003.147 1.491.272.357.091.572.454.481.811-.091.362-.46.571-.81.481zm-5.42-.533c-.085-.358.137-.717.495-.802.488-.116.991-.198 1.494-.246.366-.035.692.234.727.601s-.234.692-.601.727c-.442.042-.884.115-1.313.216-.353.085-.716-.134-.802-.496z"/><path d="m18.466 10.623c-.18-.104-.363-.203-.549-.296-.33-.164-.464-.564-.3-.894.164-.329.563-.465.894-.3.212.105.42.217.625.336.319.185.427.593.243.911-.186.318-.594.428-.913.243z"/><path d="m21.741 14.226c-.09-.187-.186-.37-.288-.55-.181-.32-.069-.727.251-.909.32-.181.727-.069.909.251.117.206.227.416.329.631.16.332.02.73-.312.89-.333.159-.73.017-.889-.313z"/><path d="m22.892 21.407c-.358-.086-.579-.446-.493-.804.101-.422.174-.855.218-1.289.037-.366.363-.631.73-.597.366.037.633.364.597.73-.05.493-.133.987-.249 1.466-.085.361-.448.58-.803.494zm.388-3.453c-.338 0-.628-.256-.662-.6-.044-.433-.118-.867-.22-1.288-.087-.358.133-.718.491-.805.356-.089.717.132.805.491.117.48.201.974.251 1.467.039.391-.267.735-.665.735z"/><path d="m21.724 23.917c-.322-.178-.439-.584-.26-.906.101-.181.196-.366.285-.555.157-.332.553-.475.887-.318.333.157.476.554.318.887-.101.215-.209.425-.324.632-.18.323-.587.437-.906.26z"/></g><path d="m13.333 13.333c-2.941 0-5.333 2.393-5.333 5.334s2.392 5.333 5.333 5.333 5.333-2.393 5.333-5.333-2.392-5.334-5.333-5.334zm-3.571 7.125c.126-.07.248-.152.357-.258.297-.307.461-.705.461-1.109.004-.154.057-.303.138-.406.073-.085.198-.193.387-.231.919-.198 1.561-.994 1.561-1.936v-.393c0-.474-.136-.927-.376-1.317.333-.09.682-.143 1.043-.143.232 0 .458.024.679.062-.008.592.134 1.183.445 1.701.338.566.932.904 1.589.904.077 0 .145-.007.233-.017l.779-.094c.175.449.274.935.274 1.444 0 .004-.001.009-.001.013-.408-.024-.807.162-1.022.497-.106.16-.322.226-.507.152l-.22-.087c-.781-.306-1.674-.11-2.252.467-.794.802-.875 2.048-.219 2.947-1.466-.079-2.722-.951-3.349-2.196z" fill="#26c6da"/><path d="m22 12c-1.103 0-2-.897-2-2s.897-2 2-2 2 .897 2 2-.897 2-2 2z" fill="#8ce1eb"/><path d="m16.764 11.68c-.192-.314-.092-.725.223-.916l3.833-2.333c.315-.192.725-.092.916.223.192.314.092.725-.223.916l-3.833 2.333c-.316.192-.726.089-.916-.223z" fill="#8ce1eb"/><path d="m20.313 15.232c-.313-.195-.407-.606-.212-.919l2.5-4c.195-.313.607-.408.919-.212.313.195.407.606.212.919l-2.5 4c-.196.314-.609.406-.919.212z" fill="#8ce1eb"/><path d="m18.862 13.138c-.26-.26-.26-.682 0-.943l1.5-1.5c.26-.26.682-.26.943 0s.26.682 0 .943l-1.5 1.5c-.261.26-.683.26-.943 0z" fill="#8ce1eb"/></svg>