<svg id="bold" enable-background="new 0 0 32 32" height="512" viewBox="0 0 32 32" width="512" xmlns="http://www.w3.org/2000/svg"><path d="m26 32h-20c-3.314 0-6-2.686-6-6v-20c0-3.314 2.686-6 6-6h20c3.314 0 6 2.686 6 6v20c0 3.314-2.686 6-6 6z" fill="#e3f8fa"/><path d="m26 32h-20c-3.314 0-6-2.686-6-6v-20c0-3.314 2.686-6 6-6h20c3.314 0 6 2.686 6 6v20c0 3.314-2.686 6-6 6z" fill="#e3f8fa"/><g fill="#8ce1eb"><path d="m20.333 15.333c-.177 0-.346-.07-.471-.195l-2.5-2.5c-.127-.127-.198-.3-.195-.48s.077-.351.208-.475l1.473-1.395c1.217-1.153 2.81-1.787 4.486-1.787.367-.001.666.298.666.666 0 1.676-.635 3.269-1.787 4.486l-1.395 1.473c-.124.131-.295.205-.475.208-.004-.001-.007-.001-.01-.001zm-1.544-3.153 1.531 1.531.924-.976c.751-.793 1.226-1.787 1.373-2.853-1.066.147-2.06.622-2.853 1.373z"/><path d="m21.333 16.333c-.129 0-.257-.05-.354-.146l-1-1c-.195-.195-.195-.512 0-.707l2-2c.195-.195.512-.195.707 0 .437.437.658 1.04.607 1.656s-.368 1.175-.871 1.534l-.799.571c-.087.062-.189.092-.29.092z"/><path d="m17.666 12.667c-.128 0-.256-.049-.354-.146l-1-1c-.173-.173-.195-.445-.053-.644l.571-.799c.359-.503.918-.82 1.534-.871.615-.051 1.219.17 1.656.607.195.195.195.512 0 .707l-2 2c-.098.097-.226.146-.354.146z"/></g><path d="m16.997 22.5c-3.858 0-6.997-3.139-6.997-6.997 0-3.397 2.425-6.293 5.767-6.886.365-.064.709.178.773.54.064.363-.178.709-.54.773-2.704.479-4.666 2.823-4.666 5.573 0 3.123 2.541 5.664 5.664 5.664 2.75 0 5.093-1.963 5.573-4.666.064-.362.41-.601.773-.54.362.064.604.41.54.773-.594 3.341-3.49 5.766-6.887 5.766z" fill="#26c6da"/><path d="m10.21 22.5c-.639 0-1.192-.185-1.609-.602-1.193-1.193-.592-3.687 1.569-6.51.224-.292.643-.347.935-.124.292.224.348.642.124.935-1.748 2.284-2.229 4.212-1.685 4.757.663.663 3.498-.235 6.425-3.154.692-.693 1.318-1.435 1.858-2.204.212-.301.627-.374.929-.162.301.212.374.627.162.929-.585.833-1.26 1.634-2.007 2.382-2.088 2.08-4.781 3.753-6.701 3.753z" fill="#26c6da"/><path d="m15.549 16.493c-.126 0-.253-.035-.366-.11-.307-.202-.392-.616-.19-.924.27-.409.473-.814.589-1.172.113-.35.491-.542.84-.429.35.113.542.489.429.84-.152.47-.41.987-.744 1.495-.129.194-.341.3-.558.3z" fill="#8ce1eb"/></svg>