<svg id="bold" enable-background="new 0 0 32 32" height="512" viewBox="0 0 32 32" width="512" xmlns="http://www.w3.org/2000/svg"><path d="m26 32h-20c-3.314 0-6-2.686-6-6v-20c0-3.314 2.686-6 6-6h20c3.314 0 6 2.686 6 6v20c0 3.314-2.686 6-6 6z" fill="#fff9dd"/><g fill="#ffe777"><path d="m22.167 16h-.667c-.276 0-.5-.224-.5-.5v-3c0-.276.224-.5.5-.5h.667c1.011 0 1.833.822 1.833 1.833v.333c0 1.012-.822 1.834-1.833 1.834z"/><path d="m22.833 13c-.276 0-.5-.224-.5-.5v-3.333c0-.276.224-.5.5-.5s.5.224.5.5v3.333c0 .276-.224.5-.5.5z"/><path d="m10.5 16h-.667c-1.011 0-1.833-.822-1.833-1.833v-.333c0-1.012.822-1.834 1.833-1.834h.667c.276 0 .5.224.5.5v3c0 .276-.224.5-.5.5z"/><path d="m9.167 13c-.276 0-.5-.224-.5-.5v-3.333c0-.276.224-.5.5-.5s.5.224.5.5v3.333c0 .276-.224.5-.5.5z"/></g><path d="m16 17.336c-1.882 0-3.764-.701-5.633-2.103-.126-.094-.2-.243-.2-.4v-1.667c0-.157.074-.306.2-.4 3.738-2.803 7.529-2.803 11.267 0 .126.094.2.243.2.4v1.667c0 .157-.074.306-.2.4-1.87 1.402-3.752 2.103-5.634 2.103zm5.333-2.503h.007z" fill="#ffd200"/><path d="m19.5 21.5h-7c-.16 0-.311-.076-.404-.206l-1.333-1.833c-.111-.152-.126-.353-.041-.521s.257-.273.445-.273h9.667c.188 0 .36.105.445.273s.07.369-.041.521l-1.333 1.833c-.094.13-.245.206-.405.206z" fill="#ffd200"/><path d="m20.833 24h-9.667c-.643 0-1.166-.523-1.166-1.167v-.333c0-1.011.822-1.833 1.833-1.833h8.333c1.011 0 1.833.822 1.833 1.833v.333c.001.644-.522 1.167-1.166 1.167z" fill="#ffe777"/><path d="m16 20c-3.309 0-6-2.692-6-6s2.691-6 6-6 6 2.692 6 6-2.691 6-6 6zm0-10.667c-2.573 0-4.667 2.093-4.667 4.667s2.094 4.667 4.667 4.667 4.667-2.093 4.667-4.667-2.094-4.667-4.667-4.667z" fill="#ffd200"/></svg>